<?xml version="1.0" encoding="utf-8"?>
<!-- Generator: Adobe Illustrator 23.1.1, SVG Export Plug-In . SVG Version: 6.00 Build 0)  -->
<svg version="1.1" id="Слой_1" xmlns="http://www.w3.org/2000/svg" xmlns:xlink="http://www.w3.org/1999/xlink" x="0px" y="0px"
	 viewBox="0 0 100 100" enable-background="new 0 0 100 100" xml:space="preserve">
<path fill="none" stroke="#2D3547" stroke-width="2" stroke-linecap="round" stroke-linejoin="round" stroke-miterlimit="10" d="
	M17.9,59.6L10.8,29c-0.2-0.7,0.3-1.4,1-1.6l56.3-13.2c0.7-0.2,1.4,0.3,1.6,1l3.5,14.9"/>
<path fill="none" stroke="#2D3547" stroke-width="4" stroke-linecap="round" stroke-linejoin="round" stroke-miterlimit="10" d="
	M82.1,85l-58-5.4c-0.6-0.1-1.1-0.6-1-1.2l4.2-44.6c0.1-0.6,0.6-1.1,1.2-1l58,5.4c0.6,0.1,1.1,0.6,1,1.2L83.4,84
	C83.3,84.6,82.8,85.1,82.1,85z"/>
<polyline fill="none" stroke="#06ADEF" stroke-width="4" stroke-linecap="round" stroke-linejoin="round" stroke-miterlimit="10" points="
	29.9,66.1 42.6,52.7 53.4,71.6 65.4,61.5 79,76.8 "/>
<circle fill="none" stroke="#06ADEF" stroke-width="4" stroke-linecap="round" stroke-linejoin="round" stroke-miterlimit="10" cx="73.7" cy="49.2" r="5.7"/>
</svg>
